# xmcd CD database file
#
# Track frame offsets:
#	150
#	18842
#	42385
#	57419
#	73509
#	93619
#	113557
#	131795
#	145543
#	156031
#	179417
#	196985
#	216096
#	246051
#
# Disc length: 3284 seconds
#
# Revision: 3
# Processed by: cddbd v1.5.2PL0 Copyright (c) Steve Scherf et al.
# Submitted via: CDex 1.70beta2
#
DISCID=c30cd20e
DTITLE=האנשים - מוסיקה מהמרתף
DYEAR=2002
DGENRE=
TTITLE0=ניצוץ אהבתי
TTITLE1=תבכה
TTITLE2=את
TTITLE3=ברזילרה
TTITLE4=זוג או פרד
TTITLE5=Snakes
TTITLE6=כמו בלדה
TTITLE7=הזדמנות אחרונה
TTITLE8=פרח
TTITLE9=Vara
TTITLE10=Late bloomer
TTITLE11=ברזיל
TTITLE12=בואי לאילת
TTITLE13=בונוס
EXTD=YEAR: 2002
EXTT0=
EXTT1=
EXTT2=
EXTT3=
EXTT4=
EXTT5=
EXTT6=
EXTT7=
EXTT8=
EXTT9=
EXTT10=
EXTT11=
EXTT12=
EXTT13=
PLAYORDER=
